<mxfile host="app.diagrams.net" modified="2023-04-12T02:53:28.543Z" agent="Mozilla/5.0 (Windows NT 10.0; Win64; x64) AppleWebKit/537.36 (KHTML, like Gecko) Chrome/96.0.4664.93 Safari/537.36" version="21.1.6" etag="sbARgRlX4XE8DxWGps1n" type="github">
  <diagram name="第 1 页" id="ubxKcSlFO65tErfigACV">
    <mxGraphModel>
      <root>
        <mxCell id="0" />
        <mxCell id="1" parent="0" />
      </root>
    </mxGraphModel>
  </diagram>
</mxfile>
